<svg width="20.000000" height="20.000000" viewBox="0 0 20 20" fill="none" xmlns="http://www.w3.org/2000/svg" xmlns:xlink="http://www.w3.org/1999/xlink">
	<desc>
			Created with Pixso.
	</desc>
	<defs>
		<clipPath id="clip50_454">
			<rect id="icons/search" rx="-0.500000" width="19.000000" height="19.000000" transform="translate(0.500000 0.500000)" fill="white" fill-opacity="0"/>
		</clipPath>
	</defs>
	<g clip-path="url(#clip50_454)">
		<path id="Vector" d="M19.5 18L15.8 14.32C16.79 13.03 17.5 11.34 17.5 9.45C17.5 5.08 13.89 1.5 9.5 1.5C5.1 1.5 1.5 5.17 1.5 9.55C1.5 13.93 5.1 17.51 9.5 17.51C11.3 17.51 13 16.91 14.39 15.82L18.1 19.5L19.5 18ZM9.5 15.52C6.19 15.52 3.5 12.83 3.5 9.55C3.5 6.27 6.19 3.58 9.5 3.58C12.8 3.58 15.5 6.27 15.5 9.55C15.5 12.83 12.8 15.52 9.5 15.52Z" fill="#000000" fill-opacity="1.000000" fill-rule="nonzero"/>
	</g>
</svg>
